<?xml version="1.0" ?><svg id="Layer_1" style="enable-background:new 0 0 512 512;" version="1.1" viewBox="0 0 512 512" xml:space="preserve" xmlns="http://www.w3.org/2000/svg" xmlns:xlink="http://www.w3.org/1999/xlink"><g><path d="M394.1,224.2c-61.8,0-111.9,50.1-111.9,111.9c0,61.8,50.1,111.9,111.9,111.9S506,397.8,506,336.1   C506,274.3,455.9,224.2,394.1,224.2z M467.2,351.6h-57.5v57.5h-31.1v-57.5h-57.5v-31.1h57.5V263h31.1v57.5h57.5V351.6z"/><path d="M269.9,336.1c0-68.5,55.7-124.2,124.2-124.2c8.3,0,16.4,0.8,24.3,2.4c-0.5-8.2-6.4-15.8-15.7-17.3l-110-17.3   c-6.1-1-11.3-4.8-13.9-10.4L230.7,68.9c-6.7-13.9-26.5-14.2-33.5-0.4l-50.4,99.3c-2.8,5.5-8.1,9.2-14.2,10L22.2,192.5   c-15.3,2-21.7,20.8-10.7,31.7l78.8,78.7c4.3,4.3,6.3,10.5,5.2,16.6L75.4,429c-2.8,15.2,13.1,27,26.8,20l99.2-50.7   c5.5-2.8,12-2.7,17.4,0.2l97.9,53c8.2,4.4,17.3,2,22.7-3.9C298.3,427.3,269.9,384.9,269.9,336.1z" id="XMLID_1_"/></g></svg>