<?xml version="1.0" ?><svg enable-background="new 0 0 52 52" id="Layer_1" version="1.1" viewBox="0 0 52 52" xml:space="preserve" xmlns="http://www.w3.org/2000/svg" xmlns:xlink="http://www.w3.org/1999/xlink"><path d="M49.840023,35.5148926c-0.9900513-7-6.2700195-12.0799561-12.5599976-12.0799561  c-0.7200317,0-1.2800293,0.5100098-1.8800049,1.039978c-0.4700317,0.4299927-1.0599976,0.960022-1.4700317,0.960022H27.517271  c1.5568237-4.4221802,0.0180664-9.4386597-3.9425049-12.1826172l-0.1572266-0.1083984  c-1.3759766-0.9536133-1.9736328-2.730957-1.4492188-4.3378906c0.8300781-2.5410156-0.171875-5.309082-2.4355469-6.730957  l-1.0644531,1.6933594c1.4863281,0.9331055,2.1435547,2.7495117,1.5947266,4.4321289  c-0.7929688,2.425293,0.1191406,5.1337891,2.2167969,6.5878906l0.1572266,0.1083984  c3.4087524,2.3621826,4.6069336,6.8036499,2.9310303,10.5380859h-7.2980957c-0.4100342,0-0.9899902-0.5300293-1.460022-0.9500122  c-0.5999756-0.539978-1.1599741-1.0499878-1.8899546-1.0499878c-6.2900391,0-11.5700073,5.0799561-12.5600586,12.0799561  c-0.5599977,4,0.3700562,7.8900146,2.5500486,10.6700439C6.380002,48.3149414,8.66998,49.624939,11.1799898,49.874939  c3.9500122,0.3899536,7.8200083-1.7800293,10.3099985-5.6799927h9.0200195  c2.2999859,3.5999756,5.7700176,5.7299805,9.3900127,5.7299805c0.3099976,0,0.6199951-0.0200195,0.9199829-0.0499878  c2.5100098-0.25,4.7999878-1.5599976,6.4699707-3.6900024C49.4700279,43.4049072,50.4000206,39.5148926,49.840023,35.5148926z   M19.0005474,37.6776123h-4.000001v4.0083008h-2v-4.0083008h-4v-2h4v-4.0087891h2v4.0087891h4.000001V37.6776123z   M33.0005455,37.6776123h-2.9999981v-2h2.9999981V37.6776123z M38.0005455,43.6893311h-2V40.68396h2V43.6893311z   M38.0005455,32.6707764h-2v-3.0053711h2V32.6707764z M44.0005455,37.6776123h-3v-2h3V37.6776123z"/></svg>