<?xml version="1.0" ?><svg height="36" id="svg6390" version="1.1" width="36" xmlns="http://www.w3.org/2000/svg" xmlns:cc="http://creativecommons.org/ns#" xmlns:dc="http://purl.org/dc/elements/1.1/" xmlns:inkscape="http://www.inkscape.org/namespaces/inkscape" xmlns:rdf="http://www.w3.org/1999/02/22-rdf-syntax-ns#" xmlns:sodipodi="http://sodipodi.sourceforge.net/DTD/sodipodi-0.dtd" xmlns:svg="http://www.w3.org/2000/svg"><defs id="defs6392"/><g id="layer1" transform="translate(0,-1016.3622)"><path d="m 9,1022.3622 14.7852,0 3.2148,4.1856 0,3.8144 -0.5,0 c -0.2761,0 -0.5,0.2239 -0.5,0.5 l 0,3 c 0,0.2761 0.2239,0.5 0.5,0.5 l 0.5,0 0,12 -2,0 0,-1.5 c 0,-0.2761 -0.2239,-0.5 -0.5,-0.5 l -13,0 c -0.2761,0 -0.5,0.2239 -0.5,0.5 l 0,1.5 -2,0 0,-11 0.5,0 c 0.2761,0 0.5,-0.2239 0.5,-0.5 l 0,-8 c 0,-0.2761 -0.2239,-0.5 -0.5,-0.5 l -0.5,0 z m 2.5,2 c -10e-5,0 -0.1679,0.031 -0.168,0.031 0,0 -0.1756,0.1074 -0.1758,0.1074 0,0 -0.1191,0.1758 -0.1191,0.1758 l -0.037,0.1875 0,17.9981 c 0,0.5009 0.4998,0.5 0.4998,0.5 l 13,0 c 0,0 0.5,9e-4 0.5,-0.5 l 0,-17.9981 -0.037,-0.1875 c 0,0 -0.1191,-0.1758 -0.1191,-0.1758 -1e-4,0 -0.1758,-0.1074 -0.1758,-0.1074 l -0.168,-0.031 z m 0.5,1 12,0 0,4.5 -12,0 z m 0,5.5 12,0 0,11.5 -12,0 z m 0,14.5 12,0 0,1 -12,0 z" id="path6338" style="font-size:medium;font-style:normal;font-variant:normal;font-weight:normal;font-stretch:normal;text-indent:0;text-align:start;text-decoration:none;line-height:normal;letter-spacing:normal;word-spacing:normal;text-transform:none;direction:ltr;block-progression:tb;writing-mode:lr-tb;text-anchor:start;baseline-shift:baseline;color:#000000;fill:#000000;fill-opacity:1;fill-rule:nonzero;stroke:none;visibility:visible;display:inline;overflow:visible;enable-background:accumulate;font-family:sans-serif"/></g></svg>