<?xml version="1.0" ?><!DOCTYPE svg  PUBLIC '-//W3C//DTD SVG 1.1//EN'  'http://www.w3.org/Graphics/SVG/1.1/DTD/svg11.dtd'><svg enable-background="new 0 0 24 24" height="24px" id="Layer_1" version="1.1" viewBox="0 0 24 24" width="24px" xml:space="preserve" xmlns="http://www.w3.org/2000/svg" xmlns:xlink="http://www.w3.org/1999/xlink"><path d="M15.7,5c-1.4,0-2.7,0.5-3.8,1.2c-0.9-1.6-2.3-2.9-4.1-3.6C6.7,2.2,5.4,2,4.2,2.2V1c0-0.3-0.2-0.5-0.5-0.5  C3.4,0.5,3.2,0.7,3.2,1v1.4C2.8,2.5,2.3,2.6,1.9,2.8C1.7,2.9,1.6,3.2,1.7,3.5c0.1,0.2,0.4,0.3,0.6,0.2c0.4-0.2,0.7-0.3,1.1-0.4  c3.1,2,3.9,6.1,2,9.3c-1,1.2-1.6,2.7-1.6,4.3c0,3.6,3,6.6,6.6,6.6c3.2,0,5.9-2.3,6.5-5.4c3.1-0.6,5.4-3.3,5.4-6.5  C22.3,7.9,19.4,5,15.7,5z M7.4,16.2c-0.4,0-0.6-0.3-0.6-0.6c0-0.4,0.3-0.6,0.6-0.6c0.4,0,0.6,0.3,0.6,0.6  C8.1,15.9,7.8,16.2,7.4,16.2z M7.1,11.2C8,8.3,7.1,5.1,4.8,3.1c0.9-0.1,1.9,0.1,2.8,0.4c1.6,0.6,2.9,1.8,3.7,3.3  c-1,0.9-1.7,2.2-2,3.6C8.5,10.5,7.8,10.8,7.1,11.2z M17,17.1c0-0.1,0-0.1,0-0.2c0-3.6-3-6.6-6.6-6.6c-0.1,0-0.1,0-0.2,0  C10.9,7.8,13.1,6,15.7,6c3.1,0,5.6,2.5,5.6,5.6C21.4,14.2,19.6,16.5,17,17.1z"/></svg>