<?xml version="1.0" ?><svg viewBox="0 0 24 24" xmlns="http://www.w3.org/2000/svg"><title/><g data-name="Layer 2" id="Layer_2"><path d="M6.92,13H2.05a9.94,9.94,0,0,0,2.06,5.13A7.9,7.9,0,0,0,6.92,13Z"/><path d="M4.11,5.88A9.94,9.94,0,0,0,2.05,11H6.93A7.86,7.86,0,0,0,4.11,5.88Z"/><path d="M18.5,4.41A10,10,0,0,0,13,2.05V11h2.06A9.92,9.92,0,0,1,18.5,4.41Z"/><path d="M8.93,11H11V2.05A10,10,0,0,0,5.49,4.42,9.84,9.84,0,0,1,8.93,11Z"/><path d="M19.89,18.13A9.94,9.94,0,0,0,21.95,13H17.08A7.9,7.9,0,0,0,19.89,18.13Z"/><path d="M21.95,11a9.94,9.94,0,0,0-2.06-5.12A7.9,7.9,0,0,0,17.08,11Z"/><path d="M15.06,13H13v8.95a10,10,0,0,0,5.5-2.36A9.92,9.92,0,0,1,15.06,13Z"/><path d="M5.5,19.59A10,10,0,0,0,11,21.95V13H8.94A9.92,9.92,0,0,1,5.5,19.59Z"/></g></svg>