<?xml version="1.0" ?><!DOCTYPE svg  PUBLIC '-//W3C//DTD SVG 1.1//EN'  'http://www.w3.org/Graphics/SVG/1.1/DTD/svg11.dtd'><svg enable-background="new 0 0 100 100" height="100px" id="Layer_1" version="1.1" viewBox="0 0 100 100" width="100px" xml:space="preserve" xmlns="http://www.w3.org/2000/svg" xmlns:xlink="http://www.w3.org/1999/xlink"><g><path d="M70.98,5H29.02C26.8,5,25,6.8,25,9.02V90.98C25,93.2,26.8,95,29.02,95H70.98C73.2,95,75,93.2,75,90.98V9.02   C75,6.8,73.2,5,70.98,5z M43.5,9h13c0.552,0,1,0.448,1,1c0,0.552-0.448,1-1,1h-13c-0.552,0-1-0.448-1-1C42.5,9.448,42.948,9,43.5,9   z M50,93c-1.657,0-3-1.343-3-3s1.343-3,3-3s3,1.343,3,3S51.657,93,50,93z M50,65.769c-8.025,0-14.644-6.004-15.621-13.764   c0.872-0.633,6.207-0.993,12.242-1.086c0.398,1.496,1.758,2.6,3.379,2.6c1.62,0,2.979-1.102,3.378-2.596   c6.034,0.101,11.37,0.466,12.243,1.085C64.642,59.767,58.024,65.769,50,65.769z M47.55,50.019c0-1.353,1.097-2.45,2.45-2.45   s2.45,1.097,2.45,2.45s-1.097,2.45-2.45,2.45S47.55,51.372,47.55,50.019z M65.74,50.368c-0.176-0.727-5.856-1.136-12.349-1.237   c-0.38-1.521-1.752-2.65-3.392-2.65c-1.641,0-3.014,1.131-3.393,2.655c-3.4,0.057-6.575,0.198-8.855,0.421   c0.038-6.447,5.081-11.729,11.432-12.149C49.643,37.378,50,36.999,50,36.539c0-0.505-0.427-0.91-0.931-0.875   c-7.229,0.5-12.957,6.78-13.064,14.11c-1.052,0.167-1.688,0.366-1.745,0.595c-0.003-0.129-0.01-0.257-0.01-0.387   c0-8.698,7.052-15.75,15.75-15.75s15.75,7.052,15.75,15.75C65.75,50.111,65.743,50.239,65.74,50.368z"/></g></svg>