<?xml version="1.0" ?><svg id="Layer_1" style="enable-background:new 0 0 512 512;" version="1.1" viewBox="0 0 512 512" xml:space="preserve" xmlns="http://www.w3.org/2000/svg" xmlns:xlink="http://www.w3.org/1999/xlink"><g><path d="M394.7,221.6c-62,0-112.3,54.1-112.3,120.9c0,66.8,50.3,120.9,112.3,120.9S507,409.3,507,342.5   C507,275.8,456.7,221.6,394.7,221.6z M468,325.7v33.6H321.4v-33.6H468z"/><path d="M270,342.5c0-74,56-134.3,124.7-134.3c8.3,0,16.5,0.9,24.4,2.6c-0.6-8.8-6.4-17.1-15.8-18.7l-110.5-18.7   c-6.1-1-11.3-5.2-14-11.2L230.5,53.7c-6.7-15.1-26.6-15.3-33.6-0.4l-50.7,107.3c-2.8,5.9-8.1,10-14.2,10.9L21.2,187.4   c-15.4,2.2-21.7,22.5-10.8,34.3l79.2,85c4.4,4.7,6.3,11.4,5.2,17.9L74.6,442.9c-2.8,16.4,13.1,29.2,27,21.6l99.6-54.8   c5.5-3,12-2.9,17.4,0.2l98.4,57.2c8.2,4.8,17.4,2.2,22.8-4.2C298.5,441.1,270,395.4,270,342.5z" id="XMLID_1_"/></g></svg>